<svg width="16" height="16" viewBox="0 0 16 16" fill="none" xmlns="http://www.w3.org/2000/svg">
<path d="M2.84529 12.5632C2.99521 13.6767 3.9175 14.549 5.03985 14.6006C5.98426 14.644 6.94362 14.6667 8.00008 14.6667C9.05655 14.6667 10.0159 14.644 10.9603 14.6006C12.0827 14.549 13.005 13.6767 13.1549 12.5632C13.2527 11.8365 13.3334 11.0917 13.3334 10.3333C13.3334 9.57492 13.2527 8.83021 13.1549 8.1035C13.005 6.99001 12.0827 6.11766 10.9603 6.06606C10.0159 6.02265 9.05655 6 8.00008 6C6.94362 6 5.98426 6.02265 5.03985 6.06606C3.9175 6.11766 2.99521 6.99001 2.84529 8.1035C2.74744 8.83021 2.66675 9.57492 2.66675 10.3333C2.66675 11.0917 2.74744 11.8365 2.84529 12.5632Z" stroke="#F18C2F" stroke-width="1.5"/>
<path d="M5 6.00065V4.33398C5 2.67713 6.34315 1.33398 8 1.33398C9.30622 1.33398 10.3333 2.33398 10.6667 3.33398" stroke="#F18C2F" stroke-width="1.5" stroke-linecap="round" stroke-linejoin="round"/>
<path d="M7.99756 10.334H8.00355" stroke="#F18C2F" stroke-width="2" stroke-linecap="round" stroke-linejoin="round"/>
</svg>